HIERARCHY
ROOT Hips
{
	OFFSET 0.00000 0.00000 0.00000
	CHANNELS 6 Xposition Yposition Zposition Zrotation Yrotation Xrotation 
	JOINT LHipJoint
	{
		OFFSET 0 0 0
		CHANNELS 3 Zrotation Yrotation Xrotation
		JOINT LeftHip
		{
			OFFSET 1.64577 -1.42384 0.94276
			CHANNELS 3 Zrotation Yrotation Xrotation
			JOINT LeftKnee
			{
				OFFSET 2.11538 -5.81197 0.00000
				CHANNELS 3 Zrotation Yrotation Xrotation
				JOINT LeftAnkle
				{
					OFFSET 2.36541 -6.49893 0.00000
					CHANNELS 3 Zrotation Yrotation Xrotation
					JOINT LeftToe
					{
						OFFSET 0.17759 -0.48793 1.73865
						CHANNELS 3 Zrotation Yrotation Xrotation
						End Site
						{
							OFFSET 0.00000 -0.00000 0.91205
						}
					}
				}
			}
		}
	}
	JOINT RHipJoint
	{
		OFFSET 0 0 0
		CHANNELS 3 Zrotation Yrotation Xrotation
		JOINT RightHip
		{
			OFFSET -1.43750 -1.42384 0.94276
			CHANNELS 3 Zrotation Yrotation Xrotation
			JOINT RightKnee
			{
				OFFSET -2.10480 -5.78291 0.00000
				CHANNELS 3 Zrotation Yrotation Xrotation
				JOINT RightAnkle
				{
					OFFSET -2.34880 -6.45329 0.00000
					CHANNELS 3 Zrotation Yrotation Xrotation
					JOINT RightToe
					{
						OFFSET -0.22842 -0.62757 1.80469
						CHANNELS 3 Zrotation Yrotation Xrotation
						End Site
						{
							OFFSET -0.00000 -0.00000 0.95886
						}
					}
				}
			}
		}
	}
	JOINT lowerback
	{
		OFFSET 0 0 0
		CHANNELS 3 Zrotation Yrotation Xrotation
		JOINT Chest
		{
			OFFSET 0.06217 1.93758 -0.49272
			CHANNELS 3 Zrotation Yrotation Xrotation
			JOINT Chest2
			{
				OFFSET -0.03114 2.03621 -0.05830
				CHANNELS 3 Zrotation Yrotation Xrotation
				JOINT lowerneck
				{
					OFFSET 0 0 0
					CHANNELS 3 Zrotation Yrotation Xrotation
					JOINT Neck
					{
						OFFSET 0.04421 1.41010 0.26562
						CHANNELS 3 Zrotation Yrotation Xrotation
						JOINT Head
						{
							OFFSET -0.13407 1.43847 0.06181
							CHANNELS 3 Zrotation Yrotation Xrotation
							End Site
							{
								OFFSET -0.04980 1.45844 -0.00689
							}
						}
					}
				}
				JOINT LeftCollar
				{
					OFFSET 0 0 0
					CHANNELS 3 Zrotation Yrotation Xrotation
					JOINT LeftShoulder
					{
						OFFSET 2.18382 1.47753 -0.35694
CHANNELS 3 Zrotation Xrotation Yrotation
						JOINT LeftElbow
						{
OFFSET 0 -5.054600 0.000000
CHANNELS 3 Zrotation Xrotation Yrotation
							JOINT LeftWrist
							{
OFFSET 0 -3.390130 0.000000
CHANNELS 3 Zrotation Xrotation Yrotation
								JOINT lhand
								{
									OFFSET 0 0 0
CHANNELS 3 Zrotation Xrotation Yrotation
									JOINT LFingers
									{
OFFSET 0 -0.572420 -0.000000
CHANNELS 3 Zrotation Xrotation Yrotation
										End Site
										{
OFFSET 0 -0.461500 -0.000000
										}
									}
								}
								JOINT LThumb
								{
OFFSET 0 0.000000 0.000000
CHANNELS 3 Zrotation Xrotation Yrotation
									End Site
									{
OFFSET 0 -0.468550 0.468550
									}
								}
							}
						}
					}
				}
				JOINT RightCollar
				{
					OFFSET 0 0 0
					CHANNELS 3 Zrotation Yrotation Xrotation
					JOINT RightShoulder
					{
						OFFSET -2.06033 1.72839 -0.47437
CHANNELS 3 Zrotation Xrotation Yrotation
						JOINT RightElbow
						{
OFFSET 0 -5.070100 0.000000
CHANNELS 3 Zrotation Xrotation Yrotation
							JOINT RightWrist
							{
OFFSET 0 -3.149570 -0.000000
CHANNELS 3 Zrotation Xrotation Yrotation
								JOINT rhand
								{
									OFFSET 0 0 0
CHANNELS 3 Zrotation Xrotation Yrotation
									JOINT RFingers
									{
OFFSET 0 -0.718190 -0.000000
CHANNELS 3 Zrotation Xrotation Yrotation
										End Site
										{
OFFSET 0 -0.579020 -0.000000
										}
									}
								}
								JOINT RThumb
								{
OFFSET 0 0.000000 0.000000
CHANNELS 3 Zrotation Xrotation Yrotation
									End Site
									{
OFFSET 0 -0.587860 0.587860
									}
								}
							}
						}
					}
				}
			}
		}
	}
}
MOTION
Frames: 7
Frame Time: 0.008333333333333333
13.830173 14.874985 -2.242516 -176.278038 -49.729793 -544.693167 0.000000 0.000000 0.000000 -27.480620 -12.163751 -0.734251 4.306241 12.555471 37.729028 2.039328 0.076678 -27.069672 0.026769 -1.050554 -2.887948 0.000000 0.000000 0.000000 22.267292 13.473952 -20.742277 -11.701323 -18.251328 65.027384 -0.102203 -14.952891 -22.268349 -2.217279 9.303467 -26.750266 -3.657089 1.727227 11.966448 -6.465454 1.019343 7.355304 -4.831383 0.160990 1.056564 10.943068 8.495414 2.671529 -10.101336 11.588634 -1.086792 -4.688028 5.852622 0.482810 0.000000 0.000000 0.000000 18.237812 3.790340 24.293952 13.378562 -21.839305 2.592442 17.647442 -3.835134 -21.642435 0.000000 0.000000 0.000000 -7.125000 0.000000 0.000000 -11.387850 52.230571 2.049840 0.000000 0.000000 0.000000 -71.034119 7.482065 -26.477100 -29.486066 -40.448771 -11.074697 -39.163868 -39.298266 3.866216 0.000000 0.000000 0.000000 7.125000 0.000000 0.000000 -10.365948 34.810301 -2.628846
13.389570 14.977282 -2.656779 -175.823342 -50.778939 -545.041760 0.000000 0.000000 0.000000 -27.578398 -11.461764 2.343781 4.025218 12.193418 36.420226 1.770048 0.548940 -25.370738 0.047247 -1.400071 -3.850395 0.000000 0.000000 0.000000 21.282022 15.740587 -21.626197 -9.979216 -17.391476 59.409974 -0.213583 -14.997299 -23.394275 -2.391509 9.637583 -27.811190 -3.698102 1.591886 11.842207 -6.209878 0.879919 7.413407 -4.517542 0.095396 1.169752 11.111090 8.527392 2.999209 -10.542205 11.665658 -1.047148 -4.856642 5.901569 0.486977 0.000000 0.000000 0.000000 17.597768 3.382950 23.009996 13.488548 -21.998884 2.633489 17.656319 -4.867973 -20.682355 0.000000 0.000000 0.000000 -7.125000 0.000000 0.000000 -11.013700 51.263987 1.717521 0.000000 0.000000 0.000000 -70.923148 7.501596 -26.837787 -29.619413 -40.564872 -11.161315 -39.812951 -39.484567 4.014158 0.000000 0.000000 0.000000 7.125000 0.000000 0.000000 -10.921739 35.028239 -2.715474
12.938166 15.087240 -3.073752 -175.181868 -51.891558 -545.479945 0.000000 0.000000 0.000000 -27.227617 -10.495603 4.477268 3.955407 12.100608 36.089073 1.391885 0.867064 -22.610741 0.114985 -2.168428 -5.972178 0.000000 0.000000 0.000000 20.497453 17.794820 -21.611111 -8.030123 -16.124625 52.643109 -0.312653 -15.045421 -24.345994 -2.618852 10.049215 -29.137755 -3.549191 1.462261 11.567335 -5.966633 0.781877 7.471401 -4.327848 0.059043 1.371377 11.253083 8.523513 3.228265 -10.788388 11.690996 -0.904226 -4.957860 5.920880 0.518384 0.000000 0.000000 0.000000 17.100081 2.886095 21.862893 13.505544 -22.023411 2.639883 17.655345 -5.691446 -19.646292 0.000000 0.000000 0.000000 -7.125000 0.000000 0.000000 -10.647554 50.215709 1.383277 0.000000 0.000000 0.000000 -70.655349 7.544608 -27.277470 -29.864736 -40.777038 -11.321175 -40.310325 -39.622859 4.119239 0.000000 0.000000 0.000000 7.125000 0.000000 0.000000 -11.348507 35.187063 -2.780453
12.481339 15.174800 -3.489456 -174.312419 -53.058638 -546.146389 0.000000 0.000000 0.000000 -26.395067 -9.327805 5.396927 4.240378 12.469381 37.419537 1.007606 0.708555 -19.191530 0.242202 -3.139891 -8.670596 0.000000 0.000000 0.000000 19.972149 19.740802 -20.780731 -6.195172 -14.585228 45.704753 -0.389497 -14.961126 -24.908727 -2.914506 10.553190 -30.789617 -3.164329 1.338134 11.206298 -5.728332 0.718121 7.571652 -4.281160 0.048337 1.670291 11.342728 8.494727 3.344477 -10.869351 11.674490 -0.704417 -4.996517 5.915276 0.566680 0.000000 0.000000 0.000000 16.706744 2.269718 21.019218 13.435650 -21.922216 2.613754 17.648286 -6.253018 -18.641269 0.000000 0.000000 0.000000 -7.125000 0.000000 0.000000 -10.321802 49.194616 1.079138 0.000000 0.000000 0.000000 -70.377469 7.592537 -27.782533 -30.175546 -41.043139 -11.524796 -40.670500 -39.690294 4.226333 0.000000 0.000000 0.000000 7.125000 0.000000 0.000000 -11.662677 35.343129 -2.814801
12.023861 15.223164 -3.901528 -173.483295 -54.289763 -546.972499 0.000000 0.000000 0.000000 -25.374532 -8.142322 5.243201 4.944509 13.312237 40.564423 0.673272 0.160909 -15.516887 0.406847 -4.082739 -11.311182 0.000000 0.000000 0.000000 19.610827 21.527471 -19.216950 -4.702555 -13.019556 39.478185 -0.443119 -14.730694 -25.093722 -3.180496 10.980333 -32.215041 -2.743825 1.234019 10.909213 -5.505183 0.668761 7.728319 -4.275116 0.043688 1.995988 11.356747 8.455841 3.372220 -10.841511 11.636564 -0.444704 -4.986197 5.895916 0.633261 0.000000 0.000000 0.000000 16.335138 1.608107 20.489151 13.325102 -21.761690 2.572580 17.669988 -6.656282 -17.767655 0.000000 0.000000 0.000000 -7.125000 0.000000 0.000000 -10.029062 48.309059 0.827110 0.000000 0.000000 0.000000 -70.310540 7.612389 -28.276400 -30.448398 -41.274510 -11.704306 -40.960843 -39.678034 4.378372 0.000000 0.000000 0.000000 7.125000 0.000000 0.000000 -11.925939 35.554819 -2.817852
11.569850 15.224535 -4.307772 -172.699326 -55.586220 -548.059424 0.000000 0.000000 0.000000 -24.285471 -7.088892 4.269103 6.088313 14.511890 45.332219 0.407023 -0.410163 -11.908943 0.545762 -4.732552 -13.147443 0.000000 0.000000 0.000000 19.579725 22.736487 -17.079795 -3.674595 -11.712910 34.725588 -0.398733 -14.615600 -24.583351 -3.354146 11.247317 -33.118609 -2.326814 1.147237 10.819714 -5.275872 0.617109 7.925330 -4.264337 0.034482 2.251568 11.321812 8.414312 3.351160 -10.760884 11.591870 -0.104005 -4.948408 5.871132 0.724751 0.000000 0.000000 0.000000 15.952113 1.019099 20.180768 13.216117 -21.603046 2.532271 17.738978 -7.040063 -17.051069 0.000000 0.000000 0.000000 -7.125000 0.000000 0.000000 -9.752383 47.588219 0.628534 0.000000 0.000000 0.000000 -70.623181 7.583084 -28.681348 -30.585086 -41.389674 -11.794600 -41.212703 -39.621083 4.547887 0.000000 0.000000 0.000000 7.125000 0.000000 0.000000 -12.160672 35.788291 -2.804954
11.123440 15.179260 -4.705646 -171.912998 -56.954628 -549.511579 0.000000 0.000000 0.000000 -23.225144 -6.330368 2.688022 7.691871 15.868701 51.413756 0.240196 -0.376783 -9.102521 0.616891 -5.026664 -13.984638 0.000000 0.000000 0.000000 20.118134 22.472821 -14.814788 -3.204237 -11.018044 32.341268 -0.247236 -14.837153 -23.499938 -3.552517 11.539268 -34.121798 -1.934889 1.077123 11.079516 -5.025473 0.556126 8.107969 -4.220143 0.016624 2.301134 11.310487 8.358535 3.355312 -10.692103 11.534507 0.331277 -4.917336 5.840131 0.840795 0.000000 0.000000 0.000000 15.554161 0.686118 19.932587 13.166753 -21.531118 2.514167 17.797085 -7.482496 -16.433743 0.000000 0.000000 0.000000 -7.125000 0.000000 0.000000 -9.525253 46.965170 0.466241 0.000000 0.000000 0.000000 -71.408954 7.497994 -28.926986 -30.525108 -41.339223 -11.754928 -41.458894 -39.483027 4.690288 0.000000 0.000000 0.000000 7.125000 0.000000 0.000000 -12.388085 35.987622 -2.797816
